{"title":"Tapped Out 2014 DVDRIP XVID AC3 ACAB","uid":10167055,"size":1516897806,"categoryP":"video","categoryS":"movies","magnet":"?xt=urn:btih:361cdb3034a5736dddf09b952ad82a8fe0b45e67&amp;dn=Tapped+Out+2014+DVDRIP+XVID+AC3+ACAB&amp;tr=udp%3A%2F%2Ftracker.openbittorrent.com%3A80&amp;tr=udp%3A%2F%2Fopen.demonii.com%3A1337&amp;tr=udp%3A%2F%2Ftracker.coppersurfer.tk%3A6969&amp;tr=udp%3A%2F%2Fexodus.desync.com%3A6969","seeders":3,"leechers":1,"uploader":"xxxlavalxxx","files":-1,"time":1400354303,"description":" &lt;a href=&quot;\nhttp://www.imdb.com/title/tt2361184/&quot; rel=&quot;nofollow&quot; target=&quot;_NEW&quot;&gt;\nhttp://www.imdb.com/title/tt2361184/&lt;/a&gt;\n\n\nA disgruntled teenager, sent to do community service at a rundown Karate school, enters an MMA tournament to face the man who killed his parents.\n\nDirector: Allan Ungar\nWriters: Jerry Buteyn (story), Cody Hackman (story)\nStars: Michael Biehn, Martin Kove, Nick Bateman \nGenres: Action | Drama | Sport\nCountry: Canada\nLanguage: English\n\n\n\nFormat                                   : AVI\nFormat/Info                              : Audio Video Interleave\nFile size                                : 1.38 GiB\nDuration                                 : 1h 43mn\nOverall bit rate                         : 1 905 Kbps\n\nVideo\nID                                       : 0\nFormat                                   : MPEG-4 Visual\nFormat profile                           : Advanced Simple@L5\nFormat settings, BVOP                    : 2\nFormat settings, QPel                    : No\nFormat settings, GMC                     : No warppoints\nFormat settings, Matrix                  : Default (H.263)\nMuxing mode                              : Packed bitstream\nCodec ID                                 : XVID\nCodec ID/Hint                            : XviD\nDuration                                 : 1h 43mn\nBit rate                                 : 1 449 Kbps\nWidth                                    : 720 pixels\nHeight                                   : 400 pixels\nDisplay aspect ratio                     : 16:9\nFrame rate                               : 25.000 fps\nColor space                              : YUV\nChroma subsampling                       : 4:2:0\nBit depth                                : 8 bits\nScan type                                : Progressive\nCompression mode                         : Lossy\nBits/(Pixel*Frame)                       : 0.201\nStream size                              : 1.05 GiB (76%)\nWriting library                          : XviD 1.2.1 (UTC 2008-12-04)\n\nAudio\nID                                       : 1\nFormat                                   : AC-3\nFormat/Info                              : Audio Coding 3\nMode extension                           : CM (complete main)\nFormat settings, Endianness              : Big\nCodec ID                                 : 2000\nDuration                                 : 1h 43mn\nBit rate mode                            : Constant\nBit rate                                 : 448 Kbps\nChannel(s)                               : 6 channels\nChannel positions                        : Front: L C R, Side: L R, LFE\nSampling rate                            : 48.0 KHz\nBit depth                                : 16 bits\nCompression mode                         : Lossy\nStream size                              : 333 MiB (24%)\nAlignment                                : Aligned on interleaves\nInterleave, duration                     : 64 ms (1.60 video frames)\nInterleave, preload duration             : 192 ms\nTitle                                    : English\n\n\n\nscreens\n &lt;a href=&quot;\nhttp://i.imgur.com/zDOgGFZ.png&quot; rel=&quot;nofollow&quot; target=&quot;_NEW&quot;&gt;\nhttp://i.imgur.com/zDOgGFZ.png&lt;/a&gt; &lt;a href=&quot;\nhttp://i.imgur.com/3TczJfm.png&quot; rel=&quot;nofollow&quot; target=&quot;_NEW&quot;&gt;\nhttp://i.imgur.com/3TczJfm.png&lt;/a&gt; &lt;a href=&quot;\nhttp://i.imgur.com/Vg0MKOQ.png&quot; rel=&quot;nofollow&quot; target=&quot;_NEW&quot;&gt;\nhttp://i.imgur.com/Vg0MKOQ.png&lt;/a&gt;","torrent":{"xt":"urn:btih:361cdb3034a5736dddf09b952ad82a8fe0b45e67","amp;dn":"Tapped+Out+2014+DVDRIP+XVID+AC3+ACAB","amp;tr":["udp%3A%2F%2Ftracker.openbittorrent.com%3A80","udp%3A%2F%2Fopen.demonii.com%3A1337","udp%3A%2F%2Ftracker.coppersurfer.tk%3A6969","udp%3A%2F%2Fexodus.desync.com%3A6969"],"infoHash":"361cdb3034a5736dddf09b952ad82a8fe0b45e67","infoHashBuffer":{"type":"Buffer","data":[54,28,219,48,52,165,115,109,221,240,155,149,42,216,42,143,224,180,94,103]},"announce":[],"urlList":[]}}